<?xml version="1.0" encoding="utf-8"?>
<!-- Generator: Adobe Illustrator 24.1.0, SVG Export Plug-In . SVG Version: 6.00 Build 0)  -->
<svg version="1.1" id="Capa_1" xmlns="http://www.w3.org/2000/svg" xmlns:xlink="http://www.w3.org/1999/xlink" x="0px" y="0px"
	 viewBox="107 297 200 200" style="enable-background:new 107 297 200 200;" xml:space="preserve">
<style type="text/css">
	.st0{fill:#FDC61B;}
</style>
<g>
	<path class="st0" d="M267.9,391.1v4.7c0.5,0,1.1,0.1,2,0.4c1.4,0.4,2.7,0.8,4,1.2c3.7,1.1,7.1,2.1,10.4,3.5c3.7,1.6,6.4,4,8.3,7.3
		c1.7,3,2.8,6.8,3.4,11.7c0.3,2.5,0.5,5.2,0.7,7.7c0.1,1.1,0.2,2.3,0.3,3.4v7.9c-4.3,4.2-9.8,6.5-15.7,8.1
		c-0.3-8.3-0.8-17.9-3.7-27.3c-2.6-8.7-7.3-15.8-14-21.2c1.1-0.5,2.2-1.2,3.1-2.1c0.6-0.6,0.9-0.6,1.2-0.6L267.9,391.1 M267.9,391.1
		c-1.5,0-3,0.5-4.5,1.9c-1.4,1.4-3.7,1.8-5.7,2.4c-1.9,0.5-3.9,0.6-6.2,1c0.8,0.5,1.2,0.8,1.7,1.1c10,5,16.7,12.8,19.9,23.5
		c2.6,8.7,3.2,17.7,3.5,26.7c0.1,1.7,0.2,3.4,0.3,5.2c9.5-2.2,18.3-4.8,24.8-12.2c0-3.3,0-6.7,0-10c-0.3-3.8-0.6-7.7-1.1-11.5
		c-1.2-9.9-4.7-18.5-14.5-22.7c-4.8-2.1-9.9-3.3-14.9-4.9C270.1,391.3,269,391.1,267.9,391.1L267.9,391.1z"/>
	<path class="st0" d="M146.2,395.7c0.1,0.1,0.3,0.2,0.5,0.4c1.2,1,2.4,1.8,3.7,2.4c-8.6,6.8-13.9,16.6-15.8,29.2
		c-0.8,5-1.1,10-1.4,14.8c-0.1,1.5-0.2,3-0.3,4.5c-6.5-1.8-11.7-4.1-15.8-8.1v-7.4c0.1-1.2,0.2-2.4,0.3-3.6c0.2-2.7,0.4-5.4,0.7-8.1
		c0.5-5,1.7-8.9,3.6-12c2-3.4,4.9-5.8,8.9-7.4c2.9-1.2,5.9-2,9.1-2.9c1.4-0.4,2.8-0.8,4.2-1.2c0.1,0,0.2,0,0.4-0.1
		C144.7,396.1,145.4,396,146.2,395.7C146.1,395.8,146.1,395.7,146.2,395.7 M146.2,391c-0.5,0-1.1,0.1-1.7,0.3
		c-0.7,0.2-1.4,0.3-2,0.5c-4.6,1.4-9.3,2.5-13.7,4.3c-10.3,4.2-14.2,12.8-15.4,23.2c-0.4,4-0.7,8-1.1,12c0,3.2,0,6.3,0,9.5
		c6.6,7.4,15.4,10.1,24.8,12.1c0.1-1.4,0.2-2.5,0.3-3.6c0.6-7,0.8-14,1.9-20.9c1.9-12.4,7.4-22.7,18.6-29.3c1.5-0.8,2.9-1.7,5.1-2.9
		c-5.3-0.1-9.7-0.8-13.2-3.8C148.5,391.5,147.4,391,146.2,391L146.2,391z"/>
	<path class="st0" d="M187.8,403.5c5.1,4.1,12,6.4,19.3,6.4c7.2,0,14.1-2.2,19.2-6.3c7.7,1.4,16.4,3.3,23.9,7.8
		c3.2,1.9,5.7,4.3,7.5,7.2c1.8,2.8,3,6,3.4,9.6c1,7.7,1.5,15.6,1.9,23.3c0.1,2.2,0.2,4.4,0.4,6.6c0,0.1-0.1,0.1-0.1,0.2
		c-4.5,5-10.7,7.6-16.8,9.6c-9.1,3-22.2,5-33.2,5l0,0c-1.5,0-3,0-4.4,0c-15.8,0-27-1.2-37.4-3.9c-8-2.1-13.7-4.7-18.4-8.4
		c-2.5-2-2.8-3.3-2.6-5.2c0.4-3.8,0.7-7.6,0.9-11.4c0.4-5.5,0.7-10.7,1.5-15.8c0.9-5.5,3-9.8,6.6-13.4c3.3-3.3,7.9-5.9,13.7-7.6
		C177.9,405.6,182.9,404.5,187.8,403.5 M225.8,398.6c-0.8,0-1.8,0.6-2.4,1.1c-4.5,3.6-10.4,5.3-16.3,5.3c-6.1,0-12.2-1.9-16.7-5.6
		c-0.6-0.5-1.6-0.8-2.5-0.8c-0.3,0-0.5,0-0.7,0.1c-5.1,1.1-10.3,2.2-15.3,3.8c-12.5,3.8-21.5,11.4-23.6,24.8
		c-1.4,9-1.5,18.3-2.5,27.4c-0.5,4.2,1.3,7,4.4,9.4c6,4.7,12.9,7.4,20.1,9.3c11.9,3.2,24.1,4.1,38.6,4.1c1.5,0,3,0,4.5,0
		c10.7,0,24.4-1.9,34.6-5.2c7-2.3,13.8-5.2,18.8-10.9c0.7-0.8,1.4-2,1.4-3c-0.6-10.3-1-20.6-2.3-30.9c-1.1-8.5-5.6-15.6-13.2-20.2
		c-8.2-5-17.3-7-26.5-8.6C225.9,398.7,225.9,398.6,225.8,398.6L225.8,398.6z"/>
	<path class="st0" d="M207.3,316.5v4.7c4,0,7.9,0.6,11.6,1.7c6.4,1.9,10.5,5.7,12.4,11.1c5.3,15.6,4.8,29-1.3,41
		c-2.3,4.5-5.1,8-8.4,10.6c-3.4,2.7-7.5,4.3-12,4.8c-1,0.1-2,0.2-3,0.2c-8.4,0-15.2-4.1-21-12.6c-4.3-6.4-6.4-13.9-6.7-23.6
		c0.2-1.6,0.4-3.3,0.6-4.8c0.4-3.8,0.8-7.3,1.6-10.8c2-9.2,7.4-14.5,16.4-16.4c3.3-0.7,6.6-1,9.8-1L207.3,316.5 M207.3,316.5
		c-3.6,0-7.1,0.4-10.7,1.1c-11,2.3-17.7,9.2-20.1,20c-1.2,5.4-1.5,10.9-2.3,16.4c0.2,9.6,2.1,18.6,7.5,26.5
		c6.1,9,14.2,14.7,24.9,14.7c1.1,0,2.3-0.1,3.5-0.2c11.3-1.2,19.1-8.1,24.1-17.9c7.4-14.5,6.6-29.7,1.6-44.7
		c-2.5-7.3-8.1-11.9-15.5-14.2C216,317.1,211.7,316.5,207.3,316.5L207.3,316.5z"/>
	<path class="st0" d="M251.9,329c2.4,0,4.9,0.3,7.4,0.8c3.4,0.7,6.2,2,8.2,3.9c2.1,1.9,3.5,4.6,4.3,7.8c2.7,11.2,2.4,20-1,27.9
		c-1.7,3.8-3.8,6.8-6.2,9.1c-2.6,2.4-5.7,3.9-9.5,4.7c-1.2,0.2-2.3,0.4-3.4,0.4c-1.8,0-3.5-0.3-5.2-0.9c7.6-16.3,8.3-33.9,2.3-53.5
		C249.8,329.1,250.8,329,251.9,329L251.9,329 M251.9,324.3c-3.1,0-6.2,0.4-9.2,1.2c7.3,20.2,8.2,39.8-2.5,59.3
		c3.7,2.3,7.5,3.5,11.5,3.5c1.4,0,2.9-0.1,4.4-0.5c9.4-1.9,15.4-8,19.1-16.5c4.4-10.1,3.8-20.5,1.3-30.9
		c-2.1-8.5-7.7-13.5-16.2-15.3C257.4,324.6,254.6,324.3,251.9,324.3L251.9,324.3z"/>
	<path class="st0" d="M160.8,329.2c1.4,0,2.9,0.1,4.4,0.2c-6,19.5-5.2,37,2.3,53.3c-1.9,0.6-3.7,1-5.5,1c-2.6,0-5.2-0.7-7.8-2
		c-3.8-2-6.9-4.7-9.1-8.1c-2.1-3.3-3.5-7.2-4.2-11.9c-1.2-7.8-0.6-15,1.7-21.6c1.2-3.5,3.1-6.1,5.8-7.9c2.6-1.7,5.9-2.7,10-2.9
		C159.1,329.2,159.9,329.2,160.8,329.2 M160.8,324.4c-0.9,0-1.8,0-2.7,0.1c-9.3,0.6-16.7,4.6-20,14c-2.7,7.7-3.1,15.8-1.9,23.9
		c1.5,10.2,6.3,18.6,15.8,23.5c3.3,1.7,6.6,2.5,9.9,2.5c4,0,8-1.2,11.9-3.5c-10.7-19.5-9.8-39.2-2.2-59.9
		C168,324.8,164.4,324.4,160.8,324.4L160.8,324.4z"/>
</g>
</svg>
