<?xml version="1.0" encoding="UTF-8"?>
<svg id="Capa_1" xmlns="http://www.w3.org/2000/svg" version="1.1" viewBox="0 0 200 200">
  <!-- Generator: Adobe Illustrator 29.7.1, SVG Export Plug-In . SVG Version: 2.1.1 Build 8)  -->
  <defs>
    <style>
      .st0 {
        fill: #fff;
        stroke: #000;
        stroke-miterlimit: 10;
        stroke-width: 9px;
      }
    </style>
  </defs>
  <circle class="st0" cx="403.5" cy="951.1" r="107.3"/>
  <g id="_x33_jqWFb">
    <path d="M122.8,147.3l-53.8-27.6c-6.9,1.2-10.2,6-17.9,6.6-40,3.5-39.1-58.7,1.7-53.2,6.9.9,10.6,5.9,17,7.2l51.8-24.2c4.7-3.1,2.8-6.5,3.4-11,3.3-24.3,37-31,49.4-10,13,21.8-7.9,47.4-31.9,39.4-4.4-1.5-7.8-5.8-12.8-4.5l-51.1,24.2c-4.9,3-5.1,8.6-.4,11.9l49.1,25c5.4,1.9,9-3.4,13.8-5.3,23.7-9.3,45.7,15.6,33.5,37.9-10.4,19.1-39.7,17.8-47.9-2.5-2-4.9-1.6-9.5-3.8-14Z"/>
  </g>
</svg>