<?xml version="1.0" encoding="UTF-8"?>
<svg id="Capa_1" xmlns="http://www.w3.org/2000/svg" version="1.1" viewBox="0 0 200 200">
  <!-- Generator: Adobe Illustrator 29.7.1, SVG Export Plug-In . SVG Version: 2.1.1 Build 8)  -->
  <defs>
    <style>
      .st0 {
        fill: #fff;
      }
    </style>
  </defs>
  <g id="DAhsdF">
    <path class="st0" d="M178.8,31c2,1.9,3.6,5.3,4,8,.6,4.4.7,12.4.6,17-.3,53.9-18.8,118.9-75.5,137.6-10.1,3.3-14.5,1.1-23.9-3C30,166.7,15.5,102.8,16.7,49.1c.2-7.6-1.3-15.5,6.5-19.9,5.4-3.1,11.3-1.5,17.2-1.8,13.6-.7,28.3-5.5,40.1-12.2,5.4-3.1,13.1-10.3,19-10.4,6.3,0,9.5,4.3,14.3,7.3,13.3,8.3,29,14.4,44.8,15.3s14.6-1.7,20.1,3.6ZM98.7,12.8c-2.2.4-6.3,4.3-8.5,5.7-15.2,9.7-32.2,15.6-50.2,16.7-5,.3-14.3-2.2-15.4,4.7-.8,5.2-.7,14.1-.5,19.5,1.1,49.4,18,109.7,70.1,126.8,6.7,2.2,7.8,1.2,14.1-1.1,52.7-19.5,69.2-85.2,67.3-136,0-2.4-.2-7.7-.6-9.6s-1.7-3.4-2.9-3.9c-6.2-.6-12.4-.2-18.6-.9-16-1.8-30.8-7.8-44.2-16.4-3.1-2-6.6-6.1-10.4-5.5Z"/>
  </g>
  <g id="DAhsdF1" data-name="DAhsdF">
    <path class="st0" d="M158.2,49c1.5,1.4,2.7,3.9,2.9,5.9.4,3.2.5,9.1.5,12.6-.2,39.9-13.9,87.9-55.8,101.7-7.5,2.5-10.7.8-17.7-2.2-39.9-17.6-50.6-64.8-49.7-104.5s-.9-11.5,4.8-14.7,8.3-1.1,12.7-1.4c10-.6,21-4.1,29.7-9s9.7-7.6,14-7.7c4.7,0,7,3.2,10.5,5.4,9.8,6.1,21.5,10.6,33.2,11.3,5.1.3,10.8-1.3,14.9,2.6ZM99,35.5c-1.6.3-4.7,3.2-6.3,4.2-11.2,7.1-23.8,11.5-37.1,12.4-3.7.2-10.6-1.7-11.4,3.4s-.5,10.4-.4,14.4c.8,36.5,13.3,81.1,51.9,93.8,4.9,1.6,5.7.9,10.4-.8,38.9-14.4,51.2-63,49.8-100.6,0-1.8-.2-5.7-.5-7.1s-1.3-2.5-2.2-2.9c-4.6-.5-9.2-.2-13.8-.7-11.8-1.3-22.8-5.8-32.7-12.1-2.3-1.4-4.9-4.5-7.7-4Z"/>
  </g>
</svg>