<?xml version="1.0" encoding="utf-8"?>
<!-- Generator: Adobe Illustrator 26.5.0, SVG Export Plug-In . SVG Version: 6.00 Build 0)  -->
<svg version="1.1" id="Capa_1" xmlns="http://www.w3.org/2000/svg" xmlns:xlink="http://www.w3.org/1999/xlink" x="0px" y="0px"
	 viewBox="0 0 200 200" style="enable-background:new 0 0 200 200;" xml:space="preserve">
<style type="text/css">
	.st0{fill:#944E1F;}
	.st1{fill:#FFFFFF;}
</style>
<circle class="st0" cx="100" cy="100" r="97.43"/>
<g>
	<g>
		<path class="st1" d="M84.93,180.27c-0.83,0-1.69-0.2-2.56-0.59c-2.72-1.22-4.26-3.43-4.57-6.58c-0.01-0.1-0.02-0.18-0.02-0.25
			c-0.3,0.04-0.61,0.06-0.9,0.06c-1.74,0-3.31-0.66-4.67-1.96c-1.54-1.46-2.43-3.36-2.72-5.78c-0.66,0.16-1.31,0.24-1.93,0.24
			c-1.95,0-3.73-0.78-5.29-2.32c-2.07-2.04-3.08-4.65-2.96-7.58c-0.36-0.11-0.72-0.2-1.07-0.3c-1.13-0.3-2.2-0.59-3.19-1.17
			c-3.47-2.05-4.83-6.71-3.15-10.84c0.08-0.19,0.1-0.47,0.08-0.55c-1.79-2.73-2.98-5.89-4.13-8.94c-0.48-1.29-0.97-2.57-1.5-3.83
			l-0.2-0.47c-0.86-2.05-1.67-4-3.04-5.65l-0.3,0.42c-1.01,1.46-2.45,2.3-3.96,2.3c-0.86,0-1.72-0.28-2.49-0.81
			c-5.45-3.73-10.37-7.19-15.06-10.56c-2.46-1.77-2.92-5.04-1.13-7.97c2.64-4.31,5.29-8.62,7.95-12.93l6.07-9.86
			c2.3-3.74,4.6-7.48,6.89-11.22c1.37-2.24,2.77-3.28,4.42-3.28c1.07,0,2.23,0.46,3.56,1.4l12.63,8.97c2.96,2.1,3.22,2.42,3.7,6.02
			h5.2c-0.18-1.06-0.37-2.11-0.56-3.15c-0.51-2.83-0.99-5.51-1.36-8.26c-0.8-6.01-0.94-12.3-0.42-18.7
			c0.16-2.02,1.18-3.48,2.95-4.22l3.52-1.48c8.4-3.52,17.09-7.15,25.66-10.65c0.53-0.22,1.15-0.33,1.79-0.33
			c0.65,0,1.27,0.12,1.81,0.33c7.54,3.07,15.18,6.27,22.57,9.36l6.5,2.72c1.89,0.79,2.93,2.36,3.09,4.68
			c0.78,11.6-0.38,22.67-3.45,32.89c-0.01,0.04-0.02,0.09-0.04,0.13l0.48-0.11c1.43-0.33,2.8-0.65,4.16-1.03
			c-0.02-0.02,0.12-0.28,0.14-0.44c0.21-1.73,1-3.08,2.4-4.13c2.4-1.8,4.8-3.6,7.2-5.4c2.26-1.7,4.52-3.4,6.79-5.09
			c1.03-0.77,2.09-1.16,3.13-1.16c1.74,0,3.27,1.1,4.3,3.1c6.24,12.07,12.48,24.15,18.71,36.23c1.64,3.18,1.06,6.04-1.62,8.04
			c-2.71,2.03-5.43,4.04-8.14,6.06c-1.93,1.43-3.86,2.86-5.79,4.3c-0.99,0.74-2.01,1.11-3.05,1.11c-0.65,0-1.31-0.14-1.98-0.43
			c-0.15-0.06-0.34-0.1-0.52-0.1c-0.11,0-0.22,0.01-0.31,0.04c-4.95,1.38-9.76,3.75-14.7,7.22c0.2,0.26,0.41,0.53,0.56,0.84
			c0.22,0.46,0.46,0.91,0.71,1.37c0.64,1.18,1.3,2.41,1.58,3.76c0.52,2.49-0.04,4.97-1.53,6.81c-1.32,1.63-3.26,2.56-5.31,2.56
			c-0.3,0-0.59-0.02-0.9-0.06c-0.16-0.02-0.33-0.05-0.5-0.07c0.82,3.09,0.45,5.54-1.11,7.64c-1.45,1.94-3.22,2.92-5.27,2.92
			c-0.43,0-0.87-0.04-1.32-0.13c0.54,2.57,0.04,5.07-1.39,6.87c-1.21,1.52-2.93,2.36-4.84,2.36c-0.43,0-0.88-0.04-1.32-0.13
			c-1.41-0.27-2.75-0.77-4.04-1.24c-0.32-0.12-0.64-0.24-0.96-0.35c-0.05,0.23-0.1,0.47-0.15,0.72c-0.23,1.15-0.48,2.34-1,3.42
			c-1.26,2.6-3.4,3.92-6.35,3.92c-0.29,0-0.58-0.01-0.88-0.04c-2.59-0.22-4.84-1.48-7-2.71l-2.02-1.14
			c-1.73-0.97-3.47-1.95-5.19-2.95c-0.18-0.11-0.28-0.13-0.33-0.13c-0.1,0-0.25,0.14-0.36,0.25c-0.89,0.95-1.8,1.88-2.71,2.81
			c-0.96,0.99-1.93,1.98-2.87,2.99C88.03,179.53,86.53,180.27,84.93,180.27z M91.11,161.64c-0.72,0-1.44,0.42-2.33,1.36
			c-1.63,1.73-3.28,3.44-4.93,5.15l-1.41,1.46c-1.37,1.42-1.67,2.55-1.11,4.18c0.52,1.54,2.01,2.78,3.57,3.02
			c0.17-0.09,0.35-0.17,0.53-0.25c0.46-0.21,0.88-0.4,1.19-0.7c2.63-2.61,5-4.98,7.27-7.54c0.52-0.58,0.9-1.76,0.85-2.62
			c-0.11-2.18-1.5-3.28-2.65-3.81C91.74,161.72,91.42,161.64,91.11,161.64z M100.14,170.65c2.69,1.44,5.48,2.94,8.26,4.28
			c0.5,0.24,1.16,0.36,2.01,0.36c0.41,0,0.83-0.03,1.23-0.06c1.32-0.11,2.32-1.02,2.97-2.72c0.49-1.28,0.24-2.57-0.73-3.82
			c-0.75-0.96-1.53-1.74-2.31-2.3c-3.53-2.53-7.07-5.03-10.62-7.52l-4.19-2.95c-0.08-0.06-0.16-0.1-0.25-0.16
			c-0.31-0.18-0.69-0.42-0.88-0.83c-0.02-0.05-0.59-1.29-0.16-2.04c0.26-0.46,0.86-0.71,1.76-0.76c0,0,0,0,0,0
			c0.44,0,0.74,0.26,0.98,0.46c0.06,0.06,0.13,0.11,0.19,0.16l18.69,13.17c2.04,1.44,4.29,2.81,6.91,3.09
			c0.15,0.02,0.31,0.02,0.46,0.02c1.26,0,2.19-0.63,2.86-1.93c0.9-1.75,0.3-3.15-0.36-4.03c-1.02-1.34-2.07-2.43-3.14-3.23
			c-4.32-3.25-8.75-6.49-13.04-9.62l-4.63-3.39c-0.23-0.17-0.46-0.33-0.7-0.49c-0.61-0.42-1.23-0.85-1.78-1.41
			c-0.46-0.47-0.81-1.55-0.58-2.25c0.22-0.66,0.72-1.05,1.34-1.05c0.37,0,0.76,0.14,1.13,0.39c0.27,0.19,0.54,0.38,0.8,0.57
			c1.78,1.31,3.57,2.62,5.35,3.94c4.52,3.33,9.19,6.78,13.82,10.09c1.84,1.31,3.88,2.3,5.63,3.08c0.36,0.16,0.71,0.24,1.06,0.24
			c0.84,0,1.66-0.49,2.43-1.44c0.96-1.2,1.19-2.59,0.71-4.25c-0.62-2.15-2.08-3.49-3.42-4.52l-19.57-15.04l-0.25-0.18
			c-0.63-0.46-1.81-1.31-0.94-2.81c0.36-0.62,0.81-0.93,1.34-0.93c0.61,0,1.1,0.41,1.54,0.77l0.27,0.22
			c2.04,1.56,4.07,3.13,6.1,4.69c4.38,3.37,8.9,6.86,13.39,10.23c1.35,1.01,2.95,1.86,4.76,2.52c0.51,0.18,1,0.28,1.46,0.28
			c1.14,0,2.11-0.58,2.86-1.71c1-1.5,1-3.17,0.01-5.24c-0.83-1.74-2.1-3.2-4.1-4.74c-10.77-8.26-21.54-16.52-32.31-24.78
			c-0.29-0.22-0.57-0.44-0.78-0.48c-0.91-0.18-1.7-0.26-2.41-0.26c-1.99,0-3.53,0.68-4.85,2.13c-1.49,1.65-3.11,3.23-4.82,4.7
			c-2.8,2.41-6.13,5.05-10.25,5.85c-0.62,0.12-1.25,0.18-1.86,0.18c-3.07,0-5.75-1.56-7.16-4.17c-1.76-3.25-1.32-6.69,1.28-10.21
			c2.33-3.16,4.58-5.94,6.88-8.5c0.87-0.97,1.71-1.96,2.55-2.96c2.37-2.81,4.82-5.72,7.82-7.91c-1.96-1.45-4.15-2.38-6.54-2.78
			c-0.98-0.16-2-0.24-3.12-0.24c-2.09,0-4.23,0.29-6.29,0.57c-0.83,0.11-1.65,0.22-2.48,0.32c-3.18,0.36-6.42,0.45-9.45,0.49
			c-0.81,0.01-1.11,0.05-1.5,0.69c-3.56,5.86-7.15,11.7-10.75,17.54l-7.58,12.34c0.38,0.71,0.77,1.4,1.14,2.08
			c0.96,1.73,1.86,3.36,2.65,5.09c0.74,1.63,1.39,3.33,2.02,4.98c0.46,1.2,0.91,2.39,1.4,3.57c0.45,1.08,0.98,2.12,1.54,3.22
			c0.14,0.27,0.27,0.54,0.41,0.81c0.61-0.62,1.21-1.23,1.8-1.83c1.72-1.75,3.34-3.39,4.91-5.13c1.43-1.58,3.15-2.42,4.98-2.42
			c2.5,0,4.9,1.56,6.27,4.06c0.46,0.84,0.78,1.78,1.08,2.69c0.07,0.2,0.13,0.39,0.2,0.59c1.09-0.53,2.17-0.79,3.23-0.79
			c1.93,0,3.75,0.86,5.4,2.57c2.51,2.58,3.38,5.87,2.52,9.55c4.01,1.18,6.14,4.07,6.33,8.62c2.24,0.17,4.32,1.44,5.63,3.47
			c1.49,2.3,1.77,5.17,0.78,7.78C98.39,169.71,99.26,170.18,100.14,170.65z M83.9,152.95c-0.8,0-1.61,0.4-2.35,1.16
			c-2.47,2.54-4.94,5.09-7.4,7.65c-1.33,1.38-1.65,2.76-1.04,4.47c0.67,1.87,2.24,3.04,4.14,3.08c0.1-0.07,0.22-0.14,0.35-0.22
			c0.51-0.31,1.14-0.69,1.66-1.21c1.89-1.88,3.77-3.86,5.59-5.78l1.61-1.7c1.61-1.69,1.66-3.94,0.13-5.88
			C85.78,153.49,84.85,152.95,83.9,152.95z M76.82,140.94c-1.09,0-2.14,0.49-3.05,1.42c-3.16,3.25-6.31,6.52-9.44,9.8
			c-1.7,1.78-2.11,3.66-1.29,5.92c0.8,2.19,2.7,3.72,4.63,3.73c0.13,0,0.28,0.04,0.39,0.12c0.18-0.09,0.36-0.19,0.54-0.28
			c0.72-0.36,1.41-0.71,1.93-1.22c2.9-2.86,5.99-6.04,9.72-10.01c2.03-2.16,2.07-5.13,0.09-7.57
			C79.33,141.62,78.09,140.94,76.82,140.94z M54.24,146.63c0.28,2.01,1.45,3.85,2.94,4.62c0.53,0.27,1.05,0.41,1.53,0.41
			c0.84,0,1.65-0.42,2.47-1.27c1.22-1.28,2.45-2.55,3.68-3.83c1.41-1.46,2.82-2.91,4.21-4.39c1.6-1.7,1.61-4.12,0.01-6.18
			c-0.85-1.09-1.91-1.69-2.99-1.69c-0.81,0-1.58,0.34-2.23,1c-2.52,2.53-5.48,5.53-8.31,8.63c-0.4,0.44-0.67,1.11-0.95,1.82
			C54.49,146.05,54.37,146.35,54.24,146.63z M103.35,108.64c2.06,0,4.04,0.65,5.59,1.83c10.64,8.15,21.29,16.3,31.91,24.48
			c0.19,0.15,0.33,0.22,0.42,0.22c0.08,0,0.22-0.06,0.41-0.18l1.2-0.77c2.01-1.3,4.08-2.64,6.22-3.74c1.81-0.94,3.71-1.72,5.55-2.47
			c0.63-0.26,1.26-0.52,1.9-0.78l-3.56-6.89c-4.83-9.36-9.66-18.72-14.48-28.09c-0.15-0.28-0.21-0.28-0.23-0.28
			c-0.06,0-0.16,0.02-0.28,0.05c-4.94,1.35-9.99,2.03-15,2.03c-5.55,0-11.23-0.84-16.89-2.48c-0.71-0.21-1.54-0.31-2.45-0.31
			c-0.27,0-0.54,0.01-0.8,0.03c-3.57,0.22-6.98,1.89-10.12,4.97c-2.83,2.77-5.45,5.81-7.89,8.69c-2.39,2.82-4.92,5.85-7.18,9.09
			c-1,1.44-1.27,3.1-0.73,4.57c0.51,1.38,1.67,2.41,3.18,2.81c0.48,0.13,0.98,0.19,1.48,0.19c0.99,0,2.06-0.25,3.26-0.77
			c3.34-1.44,6.11-3.85,8.61-6.25c0.49-0.47,0.98-0.97,1.46-1.46c0.72-0.74,1.46-1.5,2.25-2.19
			C98.84,109.45,101.03,108.64,103.35,108.64z M142.3,86.43c-1.84,1.38-1.96,1.96-0.84,4.12c3.08,5.96,6.16,11.91,9.24,17.87
			l9.17,17.77c0.25,0.48,0.77,1.29,1.47,1.29h0c0.24,0,0.49-0.09,0.76-0.28c1.64-1.14,3.22-2.32,4.9-3.57
			c0.56-0.42,1.13-0.84,1.7-1.26L148,82.15L142.3,86.43z M33.44,119.34c1.4,0.99,2.75,1.94,4.11,2.89c0.6,0.42,1.06,0.62,1.41,0.62
			c0,0,0,0,0,0c0.34,0,0.78-0.17,1.54-1.41L54.45,98.8c2.37-3.86,4.74-7.71,7.1-11.58c0.34-0.56,1-1.94-0.16-2.82
			c-1.63-1.24-3.27-2.4-5-3.63l-1.59-1.13L32.25,118.5L33.44,119.34z M171.46,120.3l1.21-0.89c1.26-0.93,2.49-1.83,3.7-2.74
			c1.34-1,1.5-1.79,0.68-3.36c-0.99-1.93-18.65-36.11-18.65-36.11c-0.32-0.62-0.85-1.37-1.52-1.37c-0.27,0-0.56,0.11-0.88,0.34
			c-1.31,0.92-2.59,1.9-3.91,2.9l-1.34,1.01L171.46,120.3z M45.6,73.5c-0.34,0-0.81,0.15-1.54,1.34
			c-6.79,11.05-13.57,22.11-20.37,33.15c-1.82,2.96-1.77,3.25,0.94,5.16c1.21,0.85,2.42,1.7,3.65,2.55l1.18,0.82l22.55-38.85
			l-4.97-3.54C46.44,73.71,45.97,73.5,45.6,73.5z M103.62,87.55c1.2,0,2.38,0.17,3.52,0.51c5.24,1.57,10.65,2.36,16.08,2.36
			c1.55,0,3.13-0.06,4.7-0.19c0.79-0.06,1.1-0.26,1.41-1.27c3.07-10.02,4.25-20.81,3.5-32.05c-0.06-0.96-0.42-1.46-1.33-1.84
			c-9.4-3.9-18.8-7.81-28.19-11.75c-0.44-0.18-0.81-0.27-1.18-0.27c-0.34,0-0.68,0.08-1.04,0.23c-9.42,3.96-18.86,7.89-28.3,11.8
			c-0.89,0.37-1.25,0.91-1.32,2c-0.4,6.2-0.26,11.76,0.45,17.01c0.38,2.79,0.87,5.5,1.39,8.38c0.2,1.08,0.39,2.17,0.59,3.27
			l4.63-0.66c-0.04-0.21-0.08-0.38-0.12-0.56c-1.55-6.56-2.17-13.39-1.84-20.31c0.13-2.77,1.3-4.51,3.67-5.48
			c2.81-1.15,5.61-2.32,8.41-3.49c3.83-1.6,7.79-3.26,11.71-4.82c0.49-0.19,1.05-0.29,1.67-0.29c0.65,0,1.34,0.11,1.99,0.32
			c1.5,0.48,2.98,1.13,4.41,1.75c0.59,0.26,1.18,0.51,1.77,0.76l5.13,2.14c1.56,0.65,1.44,1.8,1.23,2.42
			c-0.34,1.03-1.08,1.18-1.48,1.18c-0.29,0-0.6-0.07-0.96-0.22l-3.26-1.37c-2.55-1.07-5.1-2.15-7.67-3.18
			c-0.45-0.18-0.84-0.28-1.14-0.28c-0.12,0-0.22,0.02-0.3,0.05c-4.93,2.01-9.84,4.06-14.75,6.11l-6.12,2.55
			c-0.63,0.26-0.92,0.73-0.96,1.57c-0.35,6.81,0.22,13.44,1.71,19.72c0.26,1.08,0.56,1.19,1.23,1.19l0.16,0
			c0.26-0.01,0.52-0.01,0.78-0.01c4.46,0,8.53,1.49,12.09,4.42c0.03,0.02,0.15,0.07,0.34,0.07c0.16,0,0.29-0.03,0.36-0.06
			C99.16,88.11,101.46,87.55,103.62,87.55z"/>
		<path class="st1" d="M102.18,40.05c0.56,0,1.11,0.1,1.58,0.29c9.71,3.96,19.38,8.04,29.07,12.08c1.71,0.72,2.58,2.1,2.72,4.17
			c0.75,11.15-0.23,22.06-3.42,32.68c-0.08,0.27-0.13,0.56-0.24,1.1c1.97-0.47,3.78-0.86,5.58-1.36c0.25-0.07,0.53-0.6,0.57-0.95
			c0.2-1.65,0.97-2.82,2.17-3.72c4.67-3.49,9.32-7,13.99-10.49c0.94-0.7,1.88-1.04,2.78-1.04c1.48,0,2.83,0.95,3.77,2.77
			c6.24,12.07,12.48,24.15,18.7,36.23c1.5,2.91,1.01,5.46-1.45,7.3c-4.63,3.47-9.29,6.89-13.93,10.35
			c-0.87,0.65-1.76,0.99-2.69,0.99c-0.56,0-1.14-0.13-1.74-0.38c-0.23-0.1-0.5-0.15-0.76-0.15c-0.16,0-0.32,0.02-0.47,0.06
			c-5.48,1.53-10.52,4.18-15.39,7.67c0.32,0.44,0.66,0.79,0.87,1.23c0.79,1.64,1.87,3.22,2.24,4.99c0.97,4.64-2.14,8.65-6.25,8.65
			c-0.27,0-0.54-0.02-0.82-0.05c-0.42-0.05-0.83-0.13-1.42-0.22c0.94,2.9,1.04,5.61-0.75,8.02c-1.33,1.78-2.91,2.69-4.79,2.69
			c-0.63,0-1.3-0.1-1.99-0.31c0.01,0.29-0.01,0.49,0.04,0.68c1.1,4.69-1.6,8.73-5.6,8.73c-0.39,0-0.79-0.04-1.21-0.12
			c-1.96-0.38-3.85-1.23-5.54-1.79c-0.37,1.44-0.55,3.21-1.25,4.66c-1.26,2.6-3.36,3.59-5.81,3.59c-0.27,0-0.55-0.01-0.83-0.04
			c-2.63-0.22-4.9-1.59-7.2-2.88c-2.26-1.27-4.52-2.53-6.77-3.83c-0.24-0.14-0.44-0.21-0.63-0.21c-0.27,0-0.51,0.14-0.79,0.44
			c-1.84,1.96-3.75,3.84-5.58,5.8c-1.23,1.32-2.56,2-4.01,2c-0.74,0-1.51-0.18-2.31-0.54c-2.43-1.09-3.92-3.07-4.22-6.09
			c-0.02-0.17-0.03-0.35-0.06-0.52c-0.01-0.08-0.06-0.16-0.13-0.34c-0.45,0.09-0.9,0.14-1.33,0.14c-1.55,0-2.98-0.57-4.26-1.79
			c-1.63-1.55-2.43-3.59-2.6-6.12c-0.85,0.28-1.67,0.42-2.46,0.42c-1.78,0-3.41-0.71-4.87-2.15c-2.1-2.07-2.99-4.75-2.75-7.59
			c-1.63-0.53-3.24-0.76-4.59-1.55c-3.27-1.93-4.43-6.34-2.9-10.1c0.12-0.3,0.2-0.83,0.06-1.05c-2.53-3.87-3.8-8.45-5.6-12.73
			c-1.02-2.41-1.98-4.88-3.84-6.84c-0.27,0.38-0.5,0.71-0.74,1.04c-0.91,1.31-2.17,2.04-3.47,2.04c-0.72,0-1.46-0.23-2.15-0.7
			c-5.05-3.46-10.07-6.97-15.05-10.56c-2.22-1.6-2.56-4.57-0.97-7.17c3.76-6.15,7.54-12.28,11.32-18.42c3.2-5.2,6.4-10.39,9.58-15.6
			c1.23-2.01,2.46-3,3.91-3c0.96,0,2.01,0.43,3.21,1.29c4.21,2.99,8.42,5.98,12.63,8.97c2.96,2.1,3.02,2.2,3.52,6.13
			c2.16,0,4.33,0,6.43,0c-0.71-4.15-1.5-8.1-2.03-12.08c-0.82-6.16-0.92-12.36-0.42-18.57c0.15-1.86,1.08-3.09,2.59-3.72
			c9.72-4.07,19.43-8.15,29.18-12.12C101.08,40.14,101.63,40.05,102.18,40.05 M73.42,86.41c2.1-0.3,3.9-0.56,5.83-0.83
			c-0.11-0.53-0.16-0.86-0.24-1.2c-1.56-6.6-2.15-13.31-1.83-20.14c0.12-2.61,1.18-4.09,3.3-4.96c6.72-2.74,13.39-5.62,20.12-8.31
			c0.44-0.18,0.94-0.25,1.45-0.25c0.62,0,1.25,0.11,1.81,0.29c2.08,0.67,4.09,1.65,6.13,2.5c1.71,0.71,3.42,1.42,5.13,2.14
			c0.69,0.29,1.2,0.77,0.9,1.68c-0.19,0.57-0.53,0.77-0.92,0.77c-0.23,0-0.48-0.07-0.74-0.17c-0.22-0.09-0.44-0.18-0.65-0.28
			c-3.42-1.43-6.84-2.89-10.27-4.27c-0.41-0.17-0.91-0.32-1.36-0.32c-0.19,0-0.37,0.03-0.53,0.09c-6.97,2.84-13.92,5.77-20.88,8.67
			c-0.88,0.37-1.28,1.06-1.33,2.09c-0.35,6.73,0.18,13.36,1.72,19.89c0.3,1.27,0.77,1.65,1.81,1.65c0.06,0,0.12,0,0.18,0
			c0.25-0.01,0.51-0.01,0.76-0.01c4.27,0,8.19,1.39,11.71,4.28c0.17,0.14,0.45,0.21,0.72,0.21c0.22,0,0.43-0.04,0.6-0.11
			c2.22-0.99,4.48-1.65,6.78-1.65c1.11,0,2.22,0.15,3.35,0.49c5.36,1.6,10.77,2.39,16.25,2.39c1.58,0,3.16-0.06,4.75-0.19
			c1.11-0.09,1.58-0.53,1.94-1.69c3.21-10.48,4.26-21.24,3.53-32.27c-0.09-1.31-0.69-1.93-1.7-2.35c-9.4-3.9-18.8-7.81-28.18-11.75
			c-0.49-0.21-0.95-0.32-1.41-0.32c-0.41,0-0.83,0.09-1.28,0.28c-9.42,3.96-18.85,7.89-28.29,11.79c-1.09,0.45-1.61,1.19-1.69,2.51
			c-0.37,5.73-0.31,11.45,0.46,17.13C71.89,78.23,72.71,82.25,73.42,86.41 M29.63,117.38c7.74-13.33,15.39-26.52,23.15-39.88
			c-1.87-1.34-3.64-2.6-5.41-3.86c-0.69-0.49-1.26-0.74-1.78-0.74c-0.75,0-1.38,0.53-2.05,1.63c-6.79,11.05-13.57,22.11-20.37,33.15
			c-1.99,3.23-1.89,3.85,1.1,5.96C26.04,114.89,27.82,116.11,29.63,117.38 M171.25,121.2c1.91-1.41,3.7-2.72,5.48-4.05
			c1.58-1.18,1.8-2.28,0.86-4.11c-1.6-3.12-3.22-6.23-4.82-9.34c-4.61-8.92-9.21-17.85-13.83-26.77c-0.57-1.11-1.27-1.69-2.05-1.69
			c-0.39,0-0.8,0.15-1.23,0.45c-1.87,1.32-3.69,2.75-5.66,4.23C157.12,93.74,164.17,107.44,171.25,121.2 M38.97,123.44
			c0.74,0,1.35-0.55,2.05-1.69c4.44-7.22,8.89-14.43,13.33-21.65c2.58-4.19,5.15-8.37,7.71-12.57c0.86-1.4,0.79-2.78-0.31-3.61
			c-2.32-1.75-4.7-3.4-7.14-5.15c-7.74,13.34-15.43,26.58-23.16,39.9c2,1.41,3.88,2.73,5.76,4.04
			C37.91,123.2,38.47,123.44,38.97,123.44 M161.33,128.08c0.36,0,0.73-0.12,1.1-0.39c2.34-1.63,4.62-3.38,7.02-5.15
			c-7.09-13.78-14.14-27.48-21.24-41.29c-2.14,1.6-4.21,3.15-6.27,4.7c-2.08,1.56-2.26,2.47-1.01,4.88
			c3.08,5.96,6.16,11.91,9.24,17.87c3.06,5.92,6.11,11.85,9.17,17.77C159.87,127.5,160.57,128.08,161.33,128.08 M54.21,141.11
			c2.56-2.65,5-5.04,7.31-7.59c1.41-1.56,3-2.22,4.54-2.22c2.33,0,4.53,1.52,5.75,3.75c0.64,1.16,0.98,2.53,1.48,3.84
			c1.21-0.7,2.4-1.05,3.56-1.05c1.76,0,3.43,0.8,4.97,2.39c2.52,2.59,3.26,5.86,2.22,9.56c4.26,1.03,6.44,3.91,6.47,8.77
			c0.02,0,0.04,0,0.06,0c4.89,0,8.55,5.65,6.17,10.95c3.79,2,7.55,4.09,11.39,5.95c0.68,0.33,1.47,0.42,2.27,0.42
			c0.43,0,0.86-0.03,1.28-0.06c1.7-0.14,2.82-1.38,3.48-3.1c0.63-1.65,0.15-3.15-0.82-4.4c-0.71-0.91-1.53-1.77-2.44-2.42
			c-4.92-3.53-9.88-6.99-14.82-10.47c-0.33-0.23-0.78-0.41-0.94-0.75c-0.2-0.43-0.37-1.16-0.18-1.49c0.2-0.34,0.83-0.44,1.28-0.46
			c0.01,0,0.01,0,0.02,0c0.25,0,0.52,0.33,0.78,0.51c6.23,4.39,12.46,8.78,18.69,13.17c2.22,1.56,4.53,2.91,7.19,3.2
			c0.18,0.02,0.35,0.03,0.52,0.03c1.46,0,2.61-0.73,3.39-2.25c0.86-1.67,0.61-3.31-0.42-4.66c-0.95-1.25-2.05-2.44-3.26-3.34
			c-5.86-4.4-11.78-8.69-17.67-13.02c-0.81-0.6-1.7-1.11-2.41-1.84c-0.33-0.34-0.59-1.2-0.44-1.64c0.15-0.45,0.44-0.64,0.78-0.64
			c0.25,0,0.53,0.1,0.79,0.29c0.27,0.18,0.53,0.37,0.79,0.56c6.38,4.69,12.74,9.43,19.17,14.03c1.79,1.28,3.76,2.26,5.73,3.14
			c0.45,0.2,0.88,0.29,1.3,0.29c1.08,0,2.06-0.63,2.9-1.67c1.14-1.42,1.33-3.03,0.82-4.79c-0.63-2.16-2.03-3.6-3.63-4.83
			c-6.52-5.01-13.05-10.02-19.57-15.04c-0.69-0.53-1.72-1.04-1.04-2.22c0.27-0.46,0.55-0.63,0.83-0.63c0.5,0,1,0.52,1.45,0.87
			c6.49,4.98,12.95,10.02,19.49,14.93c1.5,1.12,3.21,1.98,4.92,2.61c0.56,0.21,1.12,0.31,1.66,0.31c1.27,0,2.44-0.6,3.36-1.98
			c1.27-1.91,0.98-3.88,0.05-5.83c-1.01-2.11-2.55-3.64-4.27-4.96c-10.77-8.26-21.54-16.52-32.31-24.78
			c-0.32-0.24-0.67-0.52-1.03-0.59c-0.86-0.17-1.7-0.27-2.53-0.27c-1.91,0-3.7,0.58-5.29,2.33c-1.5,1.65-3.1,3.21-4.76,4.65
			c-3.01,2.59-6.13,4.97-9.97,5.72c-0.59,0.11-1.17,0.17-1.74,0.17c-2.83,0-5.3-1.39-6.63-3.85c-1.59-2.95-1.27-6.18,1.24-9.58
			c2.17-2.93,4.44-5.77,6.84-8.46c3.45-3.85,6.51-8.19,10.72-11.1c0.04-0.03,0.02-0.15,0.04-0.28c-2.19-1.75-4.62-2.82-7.27-3.26
			c-1.08-0.18-2.15-0.25-3.22-0.25c-2.96,0-5.89,0.55-8.84,0.89c-3.11,0.36-6.26,0.44-9.39,0.48c-0.89,0.01-1.45,0.07-2,0.98
			c-4.69,7.72-9.43,15.4-14.16,23.09c-1.52,2.48-3.05,4.96-4.34,7.08c1.41,2.64,2.81,4.96,3.94,7.44c1.26,2.77,2.23,5.71,3.41,8.53
			C52.54,137.9,53.38,139.41,54.21,141.11 M81.61,122.17c1.19,0,2.36-0.33,3.5-0.82c3.31-1.43,6.11-3.8,8.78-6.36
			c1.24-1.19,2.41-2.5,3.69-3.64c1.59-1.41,3.69-2.12,5.77-2.12c1.87,0,3.73,0.57,5.23,1.71c10.64,8.15,21.29,16.3,31.91,24.48
			c0.3,0.23,0.54,0.34,0.78,0.34c0.22,0,0.45-0.1,0.74-0.28c2.43-1.56,4.84-3.18,7.37-4.49c2.57-1.33,5.27-2.31,7.96-3.47
			c-0.03-0.09-0.04-0.18-0.08-0.26c-6.07-11.77-12.15-23.54-18.2-35.32c-0.23-0.44-0.45-0.61-0.77-0.61c-0.13,0-0.27,0.03-0.44,0.07
			c-4.96,1.35-9.91,2.01-14.85,2.01c-5.58,0-11.15-0.84-16.72-2.46c-0.84-0.24-1.74-0.34-2.62-0.34c-0.28,0-0.56,0.01-0.84,0.03
			c-4.04,0.25-7.52,2.21-10.5,5.14c-2.78,2.73-5.37,5.72-7.92,8.73c-2.5,2.94-4.98,5.93-7.21,9.13c-2.31,3.31-0.85,7.33,2.79,8.3
			C80.53,122.1,81.07,122.17,81.61,122.17 M58.72,152.26c1.04,0,2-0.51,2.9-1.46c2.62-2.75,5.28-5.45,7.89-8.22
			c1.82-1.92,1.81-4.69,0.05-6.95c-0.98-1.26-2.23-1.92-3.46-1.92c-0.94,0-1.86,0.38-2.65,1.17c-2.82,2.83-5.62,5.69-8.33,8.66
			c-0.69,0.76-1,1.98-1.48,2.99c0.25,2.22,1.53,4.35,3.29,5.25C57.55,152.11,58.14,152.26,58.72,152.26 M67.66,162.4
			c0.01,0,0.03,0,0.04,0c0.05,0.11,0.1,0.21,0.15,0.32c1.04-0.61,2.23-1.02,3.09-1.87c3.31-3.26,6.54-6.63,9.73-10.03
			c2.25-2.39,2.25-5.72,0.12-8.35c-1.14-1.41-2.56-2.13-3.98-2.13c-1.21,0-2.43,0.53-3.48,1.6c-3.16,3.25-6.31,6.52-9.45,9.8
			c-1.87,1.96-2.31,4.09-1.42,6.54C63.36,160.73,65.47,162.4,67.66,162.4 M77.35,169.9c0.03,0,0.05,0,0.08,0
			c0.47-0.33,1.48-0.82,2.26-1.6c2.45-2.44,4.82-4.98,7.21-7.49c1.82-1.91,1.88-4.49,0.16-6.66c-0.95-1.2-2.05-1.81-3.16-1.81
			c-0.95,0-1.91,0.44-2.78,1.34c-2.47,2.54-4.94,5.09-7.4,7.65c-1.49,1.54-1.85,3.17-1.17,5.08
			C73.27,168.44,75.05,169.9,77.35,169.9 M85.01,177.43c0.68-0.37,1.47-0.6,2.02-1.14c2.48-2.46,4.96-4.93,7.29-7.57
			c0.63-0.71,1.06-2.04,1-3.05c-0.11-2.08-1.28-3.53-2.99-4.32c-0.43-0.2-0.84-0.29-1.23-0.29c-1.04,0-1.92,0.66-2.76,1.55
			c-2.1,2.22-4.22,4.41-6.34,6.61c-1.52,1.58-1.88,2.94-1.25,4.79C81.4,175.85,83.19,177.24,85.01,177.43 M102.18,38.85
			c-0.72,0-1.42,0.13-2.02,0.37c-8.54,3.48-17.2,7.1-25.57,10.61l-3.62,1.52c-1.99,0.83-3.13,2.46-3.32,4.72
			c-0.52,6.44-0.38,12.78,0.43,18.83c0.37,2.77,0.85,5.46,1.36,8.3c0.14,0.81,0.29,1.62,0.43,2.43h-3.97
			c-0.47-3.3-0.92-3.81-3.87-5.91l-12.39-8.8l-0.24-0.17c-1.43-1.01-2.7-1.51-3.9-1.51c-2.46,0-3.99,2.04-4.93,3.57
			c-2.27,3.71-4.55,7.41-6.82,11.11L31,88.42l-3.36,5.47c-2.65,4.32-5.31,8.63-7.96,12.95c-1.93,3.15-1.39,6.84,1.29,8.76
			c4.68,3.37,9.61,6.83,15.07,10.57c0.87,0.6,1.85,0.91,2.83,0.91c1.62,0,3.16-0.84,4.27-2.31c1.04,1.45,1.74,3.12,2.47,4.87
			l0.2,0.47c0.52,1.25,1.02,2.55,1.49,3.81c1.13,3.01,2.31,6.13,4.09,8.92c-0.01,0.05-0.02,0.11-0.04,0.14
			c-1.79,4.4-0.33,9.38,3.4,11.58c1.06,0.63,2.22,0.94,3.34,1.24c0.2,0.05,0.41,0.11,0.62,0.17c0,2.89,1.1,5.54,3.14,7.56
			c1.68,1.65,3.6,2.49,5.71,2.49c0.47,0,0.95-0.04,1.43-0.13c0.38,2.26,1.3,4.07,2.81,5.5c1.48,1.41,3.19,2.12,5.08,2.12
			c0.12,0,0.25,0,0.37-0.01c0.41,3.15,2.09,5.47,4.88,6.72c0.95,0.43,1.89,0.64,2.8,0.64c1.77,0,3.42-0.8,4.88-2.38
			c0.94-1.01,1.92-2.01,2.87-2.99c0.91-0.93,1.81-1.86,2.7-2.81c1.7,0.99,3.41,1.95,5.12,2.91l1.63,0.91l0.43,0.24
			c2.23,1.26,4.53,2.56,7.25,2.79c0.31,0.03,0.62,0.04,0.93,0.04c3.15,0,5.54-1.47,6.89-4.26c0.56-1.15,0.82-2.43,1.05-3.56
			c0-0.01,0.01-0.03,0.01-0.04c0.1,0.04,0.2,0.07,0.3,0.11c1.25,0.46,2.67,0.99,4.13,1.27c0.48,0.09,0.96,0.14,1.43,0.14
			c2.1,0,3.99-0.92,5.31-2.58c1.39-1.75,1.97-4.09,1.65-6.54c0.2,0.02,0.4,0.03,0.6,0.03c2.25,0,4.18-1.07,5.75-3.17
			c1.54-2.06,2-4.41,1.41-7.3c0.21,0.02,0.42,0.03,0.62,0.03c2.23,0,4.33-1.01,5.77-2.78c1.61-1.98,2.21-4.64,1.65-7.3
			c-0.3-1.43-0.98-2.7-1.64-3.92c-0.24-0.45-0.48-0.89-0.7-1.34c-0.08-0.16-0.16-0.31-0.25-0.44c4.71-3.24,9.3-5.47,14.02-6.78
			c0.02,0,0.07-0.02,0.15-0.02c0.12,0,0.22,0.03,0.28,0.05c0.74,0.32,1.48,0.48,2.21,0.48c1.17,0,2.31-0.41,3.4-1.23
			c1.94-1.45,3.88-2.89,5.83-4.33c2.7-2,5.41-4.01,8.1-6.03c2.9-2.17,3.55-5.38,1.79-8.8c-6.23-12.08-12.46-24.16-18.7-36.23
			c-1.14-2.2-2.86-3.42-4.83-3.42c-1.18,0-2.35,0.43-3.49,1.28c-2.28,1.7-4.55,3.41-6.83,5.12c-2.38,1.79-4.77,3.58-7.16,5.37
			c-1.54,1.15-2.4,2.63-2.64,4.53c0,0.01,0,0.01-0.01,0.02c-1.08,0.29-2.18,0.55-3.32,0.82c2.9-10.06,3.99-20.9,3.22-32.25
			c-0.17-2.56-1.34-4.31-3.45-5.19l-6.5-2.72c-7.39-3.09-15.03-6.29-22.58-9.36C103.61,38.98,102.9,38.85,102.18,38.85L102.18,38.85
			z M74.4,85.06c-0.16-0.91-0.32-1.81-0.49-2.7c-0.52-2.87-1.01-5.58-1.39-8.35c-0.7-5.21-0.85-10.73-0.45-16.89
			c0.06-0.95,0.36-1.24,0.96-1.49c10.24-4.24,19.5-8.1,28.3-11.8c0.29-0.12,0.56-0.18,0.81-0.18c0.29,0,0.59,0.07,0.95,0.22
			c8.76,3.68,17.98,7.52,28.19,11.75c0.7,0.29,0.92,0.59,0.97,1.33c0.74,11.17-0.43,21.89-3.48,31.84c-0.24,0.8-0.37,0.81-0.89,0.85
			c-1.55,0.13-3.12,0.19-4.65,0.19c-5.37,0-10.73-0.79-15.91-2.34c-1.2-0.36-2.44-0.54-3.7-0.54c-2.25,0-4.63,0.57-7.27,1.75l0,0
			c0,0-0.05,0.01-0.11,0.01c-0.02,0-0.03,0-0.05,0c-3.66-2.98-7.83-4.49-12.39-4.49c-0.27,0-0.53,0.01-0.8,0.02l-0.14,0
			c-0.31,0-0.39-0.05-0.39-0.05c0,0-0.12-0.11-0.26-0.68c-1.47-6.22-2.04-12.8-1.69-19.55c0.04-0.75,0.29-0.92,0.6-1.05
			c2.04-0.85,4.08-1.7,6.12-2.55c4.83-2.02,9.82-4.1,14.75-6.11c0,0,0,0,0,0c0,0,0.03-0.01,0.08-0.01c0.12,0,0.41,0.03,0.91,0.23
			c2.57,1.04,5.17,2.13,7.69,3.19l2.57,1.08l0.24,0.1c0.14,0.06,0.28,0.12,0.43,0.18c0.43,0.17,0.82,0.26,1.18,0.26
			c0.97,0,1.72-0.58,2.05-1.59c0.46-1.37-0.13-2.56-1.57-3.16c-1.18-0.49-2.36-0.99-3.54-1.48l-1.59-0.66
			c-0.59-0.25-1.18-0.5-1.76-0.76c-1.44-0.63-2.93-1.28-4.46-1.77c-0.71-0.23-1.46-0.35-2.18-0.35c-0.7,0-1.33,0.11-1.89,0.34
			c-3.92,1.57-7.88,3.22-11.71,4.82c-2.8,1.17-5.6,2.34-8.41,3.49c-2.61,1.07-3.9,2.98-4.04,6.01c-0.33,6.95,0.29,13.81,1.84,20.39
			l-1.51,0.22L74.4,85.06L74.4,85.06z M29.25,115.66l-0.63-0.44c-1.23-0.86-2.45-1.7-3.66-2.56c-2.41-1.7-2.41-1.7-0.77-4.36
			c6.79-11.03,13.57-22.07,20.34-33.11c0.27-0.44,0.72-1.1,1.06-1.1c0.13,0,0.45,0.07,1.08,0.52l3.72,2.65l0.81,0.58l-6.17,10.62
			L29.25,115.66L29.25,115.66z M151.52,80.25c0.32-0.24,0.64-0.49,0.96-0.73c1.33-1.01,2.58-1.97,3.87-2.87
			c0.21-0.15,0.4-0.23,0.54-0.23c0.28,0,0.65,0.4,0.99,1.05c3.29,6.37,6.59,12.74,9.88,19.12l3.95,7.65l1.63,3.15
			c1.07,2.06,2.13,4.12,3.19,6.19c0.72,1.4,0.53,1.84-0.51,2.61c-1.23,0.92-2.46,1.83-3.74,2.77l-0.6,0.45l-2.55-4.95L151.52,80.25
			L151.52,80.25z M33.04,118.32l13.45-23.18l8.5-14.64c0.36,0.25,0.71,0.51,1.07,0.76c1.73,1.22,3.36,2.38,4.98,3.61
			c0.74,0.56,0.33,1.52,0.01,2.04c-2.39,3.92-4.79,7.83-7.2,11.73l-0.51,0.83l-6.39,10.38L40,121.13c-0.62,1.01-0.93,1.12-1.04,1.12
			c-0.12,0-0.43-0.07-1.07-0.52c-1.3-0.91-2.6-1.82-3.93-2.76L33.04,118.32L33.04,118.32z M161.33,126.88
			c-0.27,0-0.64-0.38-0.94-0.97c-1.78-3.44-3.55-6.88-5.33-10.32l-3.84-7.45c-3.08-5.96-6.16-11.92-9.24-17.87
			c-0.99-1.91-0.94-2.16,0.67-3.37c1.43-1.07,2.86-2.14,4.31-3.23l0.83-0.62l5.61,10.9l14.53,28.24c-0.43,0.32-0.86,0.64-1.28,0.96
			c-1.68,1.25-3.26,2.43-4.89,3.57C161.64,126.79,161.48,126.88,161.33,126.88L161.33,126.88z M45.9,120.36l0.89-1.46l3.09-5.04
			l3.41-5.55c3.53-5.74,7.18-11.68,10.75-17.54c0.22-0.36,0.24-0.39,1-0.4c3.05-0.04,6.3-0.12,9.51-0.49
			c0.83-0.1,1.66-0.21,2.49-0.32C79.18,89.27,81.2,89,83.25,89c1.08,0,2.07,0.08,3.02,0.24c2.03,0.34,3.91,1.08,5.62,2.21
			c-2.76,2.16-5.04,4.87-7.26,7.5c-0.83,0.98-1.68,1.99-2.54,2.95c-2.3,2.57-4.56,5.37-6.91,8.54c-2.72,3.67-3.18,7.43-1.33,10.85
			c1.51,2.8,4.39,4.48,7.68,4.48c0.65,0,1.31-0.06,1.97-0.19c4.27-0.83,7.67-3.52,10.53-5.98c1.72-1.48,3.35-3.08,4.87-4.75
			c1.2-1.32,2.6-1.94,4.4-1.94c0.67,0,1.43,0.08,2.3,0.25c0.09,0.03,0.34,0.22,0.5,0.34c10.81,8.28,21.58,16.54,32.35,24.8
			c1.92,1.48,3.13,2.87,3.92,4.53c0.9,1.89,0.91,3.32,0.03,4.65c-0.65,0.97-1.42,1.44-2.36,1.44c-0.39,0-0.81-0.08-1.25-0.24
			c-1.76-0.64-3.31-1.46-4.61-2.44c-4.49-3.37-9.02-6.86-13.4-10.24c-2.03-1.56-4.05-3.13-6.08-4.68c-0.08-0.06-0.16-0.13-0.25-0.2
			c-0.47-0.38-1.1-0.91-1.93-0.91c-0.53,0-1.28,0.21-1.86,1.23c-1.14,1.97,0.49,3.15,1.11,3.59c0.08,0.06,0.16,0.11,0.23,0.17
			c4.66,3.58,9.31,7.16,13.97,10.74l5.6,4.3c1.27,0.97,2.64,2.23,3.21,4.22c0.43,1.48,0.24,2.66-0.61,3.71
			c-0.65,0.81-1.31,1.22-1.96,1.22c-0.26,0-0.53-0.06-0.81-0.19c-1.73-0.78-3.73-1.75-5.53-3.03c-4.65-3.33-9.34-6.78-13.87-10.13
			c-1.76-1.3-3.52-2.6-5.29-3.9c-0.27-0.2-0.54-0.39-0.82-0.58c-0.47-0.33-0.98-0.5-1.47-0.5c-0.88,0-1.61,0.56-1.91,1.46
			c-0.31,0.93,0.14,2.25,0.73,2.85c0.59,0.6,1.24,1.05,1.87,1.48c0.23,0.16,0.46,0.32,0.68,0.48c1.55,1.14,3.11,2.28,4.66,3.42
			c4.27,3.13,8.69,6.36,13,9.6c1.02,0.77,2.04,1.81,3.02,3.11c0.81,1.07,0.92,2.21,0.31,3.4c-0.74,1.44-1.69,1.6-2.33,1.6
			c-0.13,0-0.26-0.01-0.39-0.02c-2.49-0.27-4.66-1.59-6.64-2.99c-4.22-2.97-8.44-5.95-12.67-8.92l-6.02-4.24
			c-0.05-0.03-0.1-0.08-0.14-0.12c-0.28-0.24-0.7-0.61-1.32-0.61c-0.02,0-0.06,0-0.08,0c-1.12,0.06-1.87,0.41-2.25,1.05
			c-0.58,1,0.06,2.43,0.13,2.59c0.27,0.58,0.78,0.89,1.12,1.09c0.07,0.04,0.15,0.09,0.21,0.13c1.37,0.97,2.74,1.93,4.11,2.89
			c3.51,2.47,7.15,5.02,10.7,7.57c0.74,0.53,1.48,1.27,2.19,2.18c0.85,1.09,1.06,2.15,0.65,3.24c-0.56,1.46-1.39,2.25-2.46,2.34
			c-0.33,0.03-0.76,0.06-1.18,0.06c-0.76,0-1.33-0.1-1.75-0.3c-2.77-1.33-5.55-2.82-8.24-4.27c-0.73-0.39-1.45-0.78-2.18-1.17
			c0.84-2.65,0.49-5.51-1.01-7.82c-1.32-2.03-3.35-3.36-5.57-3.69c-0.33-4.29-2.45-7.19-6.2-8.49c0.7-3.67-0.25-6.96-2.79-9.56
			c-1.77-1.82-3.73-2.75-5.83-2.75c-0.95,0-1.91,0.19-2.88,0.58c-0.31-0.92-0.63-1.87-1.11-2.75c-1.48-2.7-4.08-4.37-6.79-4.37
			c-2,0-3.88,0.9-5.42,2.61c-1.56,1.73-3.18,3.37-4.89,5.11c-0.4,0.41-0.81,0.82-1.21,1.24c-0.01-0.02-0.02-0.05-0.04-0.07
			c-0.55-1.09-1.08-2.12-1.52-3.17c-0.49-1.16-0.95-2.37-1.39-3.55c-0.63-1.66-1.28-3.37-2.03-5.02c-0.79-1.75-1.7-3.39-2.67-5.13
			C46.56,121.56,46.23,120.97,45.9,120.36L45.9,120.36z M81.61,120.98c-0.46,0-0.89-0.06-1.33-0.17c-1.33-0.35-2.34-1.24-2.78-2.44
			c-0.47-1.28-0.23-2.75,0.66-4.02c2.24-3.22,4.76-6.23,7.14-9.04c2.43-2.87,5.04-5.89,7.85-8.65c3.03-2.97,6.31-4.59,9.74-4.8
			c0.25-0.02,0.51-0.02,0.76-0.02c0.86,0,1.63,0.1,2.29,0.29c5.71,1.66,11.45,2.51,17.05,2.51c5.03,0,10.09-0.68,15.04-2.02
			c4.69,9.13,9.4,18.25,14.1,27.37l3.58,6.94c-0.44,0.18-0.88,0.36-1.31,0.54c-1.85,0.76-3.76,1.54-5.59,2.49
			c-2.17,1.12-4.25,2.47-6.27,3.77l-1.19,0.77c-0.03,0.02-0.05,0.03-0.08,0.05c-0.02-0.01-0.04-0.03-0.07-0.05
			c-10.98-8.46-22.1-16.97-31.91-24.48c-1.65-1.26-3.76-1.96-5.95-1.96c-2.47,0-4.8,0.86-6.57,2.42c-0.8,0.71-1.55,1.48-2.28,2.22
			c-0.48,0.49-0.95,0.97-1.44,1.44c-2.45,2.35-5.17,4.73-8.43,6.13C83.51,120.74,82.52,120.98,81.61,120.98L81.61,120.98z
			 M54.86,146.71c0.1-0.24,0.2-0.49,0.3-0.73c0.26-0.65,0.51-1.27,0.84-1.63c2.83-3.1,5.78-6.1,8.29-8.62
			c0.53-0.54,1.16-0.82,1.8-0.82c0.88,0,1.8,0.53,2.52,1.46c1.41,1.81,1.42,3.93,0.03,5.4c-1.4,1.48-2.81,2.94-4.23,4.4
			c-1.22,1.27-2.45,2.53-3.66,3.81c-0.7,0.73-1.36,1.09-2.03,1.09c-0.39,0-0.81-0.12-1.26-0.35
			C56.17,150.06,55.15,148.47,54.86,146.71L54.86,146.71z M67.66,161.46v-0.25c-1.68,0-3.35-1.37-4.06-3.33
			c-0.74-2.05-0.39-3.69,1.16-5.31c3.61-3.78,6.61-6.89,9.44-9.79c0.79-0.81,1.7-1.24,2.62-1.24c1.08,0,2.17,0.6,3.05,1.69
			c1.77,2.19,1.75,4.86-0.07,6.79c-3.73,3.96-6.81,7.14-9.7,10c-0.45,0.45-1.1,0.77-1.78,1.12c-0.09,0.05-0.18,0.09-0.28,0.14
			c-0.11-0.03-0.23-0.05-0.34-0.05c0,0-0.01,0-0.01,0l-0.01,0.24C67.68,161.45,67.67,161.46,67.66,161.46L67.66,161.46z
			 M77.09,168.7c-1.56-0.1-2.86-1.1-3.41-2.67c-0.53-1.49-0.26-2.64,0.9-3.86c2.46-2.55,4.92-5.11,7.39-7.65
			c0.44-0.45,1.12-0.98,1.93-0.98c0.96,0,1.74,0.74,2.23,1.35c1.35,1.71,1.32,3.61-0.09,5.1l-1.61,1.69
			c-1.82,1.92-3.69,3.9-5.58,5.78c-0.47,0.47-1.07,0.83-1.55,1.12C77.23,168.62,77.16,168.66,77.09,168.7L77.09,168.7z
			 M84.81,176.19c-1.29-0.26-2.48-1.31-2.92-2.59c-0.48-1.41-0.23-2.31,0.98-3.57l1.34-1.39c1.68-1.74,3.35-3.47,5.01-5.23
			c0.76-0.81,1.35-1.17,1.89-1.17c0.22,0,0.46,0.06,0.72,0.18c1,0.47,2.21,1.42,2.3,3.3c0.04,0.7-0.29,1.73-0.71,2.2
			c-2.26,2.56-4.61,4.92-7.24,7.52c-0.23,0.22-0.61,0.4-1.01,0.58C85.06,176.08,84.93,176.13,84.81,176.19L84.81,176.19z"/>
	</g>
	<g>
		<path class="st1" d="M102.16,34.6c-0.62-0.01-1.65-0.29-1.65-2.15l0-10.52c0-1.88,1.01-2.18,1.61-2.19c0,0,0,0,0,0
			c0.62,0,0.98,0.24,1.18,0.44c0.38,0.38,0.55,0.96,0.54,1.79c-0.01,1.21-0.01,2.42-0.01,3.63l0,1.49c0,0.04,0,0.08-0.01,0.12
			l0,1.45c0,1.27-0.01,2.55,0.01,3.82c0.01,0.77-0.16,1.32-0.52,1.69c-0.2,0.2-0.55,0.43-1.13,0.43
			C102.18,34.6,102.16,34.6,102.16,34.6z"/>
		<path class="st1" d="M102.17,20.33c0.86,0,1.09,0.73,1.08,1.63c-0.02,1.71-0.01,3.42-0.01,5.13c0,0-0.01,0-0.01,0
			c0,1.8-0.01,3.6,0.01,5.39c0.01,0.86-0.22,1.52-1.05,1.52c-0.01,0-0.01,0-0.02,0c-0.85-0.01-1.06-0.71-1.06-1.55
			c0-3.51,0-7.02,0-10.52c0-0.82,0.19-1.58,1.03-1.6C102.14,20.33,102.16,20.33,102.17,20.33 M102.17,19.14c-0.01,0-0.05,0-0.06,0
			c-0.52,0.01-2.19,0.24-2.19,2.79l0,2.53c0,2.67,0,5.33,0,8c0,2.52,1.72,2.74,2.24,2.74c0.81,0,1.3-0.33,1.58-0.61
			c0.48-0.48,0.7-1.17,0.69-2.11c-0.01-1.27-0.01-2.54-0.01-3.81l0-1.41c0.01-0.05,0.01-0.11,0.01-0.17l0-1.51
			c0-1.2-0.01-2.41,0.01-3.61c0.01-0.99-0.22-1.72-0.72-2.22C103.45,19.47,102.95,19.14,102.17,19.14L102.17,19.14z"/>
	</g>
	<g>
		<path class="st1" d="M138.9,49.05c-0.14,0-0.28-0.05-0.39-0.15c-0.1-0.09-0.21-0.17-0.32-0.24c-0.29-0.21-0.62-0.44-0.76-0.84
			c-0.2-0.53-0.08-1.24,0.13-1.68c0.21-0.42,0.51-0.74,0.78-1.03l0.24-0.26l2.18-2.47c1.22-1.38,2.43-2.76,3.64-4.14
			c0.42-0.48,0.94-0.97,1.6-0.97c0.44,0,0.84,0.22,1.19,0.65c0.69,0.84,0.57,1.8-0.35,2.83c-1.09,1.21-2.16,2.43-3.24,3.65
			c-1.03,1.17-2.06,2.33-3.1,3.49c-0.25,0.28-0.53,0.49-0.82,0.71c-0.13,0.1-0.26,0.2-0.4,0.31
			C139.17,49.01,139.03,49.05,138.9,49.05z"/>
		<path class="st1" d="M145.99,37.87c0.24,0,0.48,0.12,0.73,0.43c0.59,0.73,0.22,1.43-0.33,2.05c-2.12,2.37-4.21,4.77-6.33,7.14
			c-0.32,0.35-0.72,0.6-1.15,0.96c-0.37-0.32-0.79-0.51-0.91-0.84c-0.13-0.33-0.06-0.87,0.11-1.21c0.22-0.45,0.6-0.79,0.93-1.16
			c1.94-2.2,3.89-4.4,5.82-6.61C145.2,38.23,145.59,37.87,145.99,37.87 M145.99,36.68C145.99,36.68,145.99,36.68,145.99,36.68
			c-1.02,0-1.74,0.82-2.05,1.17c-1.19,1.36-2.38,2.71-3.58,4.07l-2.24,2.54c-0.07,0.08-0.15,0.16-0.22,0.24
			c-0.3,0.32-0.64,0.68-0.88,1.18c-0.27,0.55-0.42,1.43-0.15,2.15c0.21,0.56,0.65,0.88,0.97,1.11c0.09,0.06,0.19,0.13,0.28,0.21
			c0.22,0.19,0.5,0.29,0.78,0.29c0.27,0,0.54-0.09,0.76-0.27c0.13-0.11,0.26-0.21,0.38-0.3c0.3-0.23,0.62-0.47,0.9-0.79
			c1.05-1.17,2.09-2.36,3.14-3.54c1.06-1.2,2.13-2.41,3.19-3.6c1.5-1.68,0.88-2.98,0.37-3.6C147.06,36.83,146.43,36.68,145.99,36.68
			L145.99,36.68z"/>
	</g>
	<g>
		<path class="st1" d="M65.4,48.27c-0.24,0-0.47-0.06-0.69-0.17c-0.37-0.19-0.66-0.5-0.9-0.78c0,0-5.11-5.8-6.17-6.99
			c-0.34-0.39-1.39-1.57-0.32-2.83c0.34-0.4,0.74-0.61,1.17-0.61c0.67,0,1.2,0.51,1.54,0.9l1.88,2.13c1.49,1.68,2.98,3.36,4.45,5.06
			c0.23,0.27,0.4,0.59,0.52,0.82l0.1,0.2c0.05,0.09,0.08,0.19,0.08,0.3c0.01,0.6-0.2,1.14-0.57,1.51
			C66.2,48.1,65.81,48.27,65.4,48.27z"/>
		<path class="st1" d="M58.49,37.48c0.38,0,0.75,0.31,1.09,0.69c2.11,2.39,4.23,4.78,6.34,7.19c0.26,0.3,0.43,0.7,0.56,0.93
			c0.01,0.83-0.5,1.38-1.07,1.38c-0.14,0-0.28-0.03-0.42-0.1c-0.27-0.14-0.51-0.4-0.73-0.64c-2.06-2.33-4.11-4.67-6.17-6.99
			c-0.54-0.61-0.94-1.3-0.31-2.05C58.01,37.6,58.25,37.48,58.49,37.48 M58.49,36.29c-0.42,0-1.05,0.14-1.62,0.82
			c-0.53,0.62-1.18,1.91,0.33,3.61c1.03,1.17,2.07,2.34,3.1,3.51c1.02,1.16,2.05,2.33,3.08,3.48c0.28,0.32,0.62,0.68,1.08,0.91
			c0.31,0.16,0.63,0.24,0.96,0.24c0.56,0,1.1-0.23,1.52-0.65c0.49-0.49,0.75-1.18,0.74-1.94c0-0.21-0.06-0.42-0.17-0.6
			c-0.03-0.05-0.06-0.1-0.09-0.16c-0.13-0.26-0.32-0.62-0.6-0.94c-1.49-1.71-3-3.41-4.5-5.11l-1.84-2.08
			C60.06,36.92,59.4,36.29,58.49,36.29L58.49,36.29z"/>
	</g>
</g>
</svg>
